<?xml version="1.0" standalone="no"?>
<!DOCTYPE svg PUBLIC "-//W3C//DTD SVG 20010904//EN"
 "http://www.w3.org/TR/2001/REC-SVG-20010904/DTD/svg10.dtd">
<svg version="1.0" xmlns="http://www.w3.org/2000/svg"
 width="640.000000pt" height="640.000000pt" viewBox="0 0 640.000000 640.000000"
 preserveAspectRatio="xMidYMid meet">
<metadata>
Created by potrace 1.11, written by Peter Selinger 2001-2013
</metadata>
<g transform="translate(0.000000,640.000000) scale(0.100000,-0.100000)"
fill="#000000" stroke="none">
<path d="M1350 6329 c-93 -77 -94 -78 -320 -263 -85 -70 -165 -136 -178 -147
l-23 -20 29 -52 c16 -29 75 -131 132 -227 56 -96 111 -189 120 -206 10 -16 70
-119 134 -228 64 -109 116 -202 116 -207 0 -9 -77 -205 -100 -254 -5 -11 -48
-117 -96 -235 -47 -118 -89 -218 -92 -222 -6 -6 -135 -31 -267 -51 -16 -3 -61
-10 -100 -17 -38 -6 -81 -13 -95 -15 -14 -2 -68 -11 -120 -20 -52 -9 -106 -18
-120 -20 -14 -2 -68 -11 -120 -20 -52 -9 -107 -18 -122 -21 -71 -11 -92 -15
-98 -19 -4 -2 -8 -189 -9 -414 l-2 -410 28 -7 c15 -3 39 -9 53 -14 14 -5 108
-30 210 -55 102 -26 253 -64 335 -85 83 -21 215 -55 295 -75 80 -21 150 -42
156 -49 6 -6 23 -42 39 -81 15 -38 36 -88 45 -110 10 -22 41 -98 70 -170 28
-71 69 -171 91 -222 21 -51 39 -97 39 -103 0 -9 -52 -82 -70 -100 -35 -32
-600 -774 -598 -785 2 -7 73 -86 158 -176 85 -89 171 -178 190 -199 141 -148
229 -238 239 -244 11 -7 74 33 451 289 74 50 216 146 315 213 l180 122 359
-159 c197 -88 359 -161 361 -163 2 -2 49 -210 110 -478 146 -649 133 -599 159
-605 25 -6 805 1 811 7 4 3 65 296 81 383 3 17 16 86 30 155 14 69 28 136 30
150 13 69 86 425 87 426 1 1 124 50 272 108 149 59 279 111 290 115 11 5 50
21 87 35 l68 26 257 -166 c142 -92 295 -191 341 -220 45 -30 121 -79 170 -110
48 -31 103 -67 123 -80 19 -13 40 -24 47 -24 6 0 30 26 53 58 23 31 59 80 79
107 162 219 330 455 330 463 0 8 -130 134 -300 292 -49 45 -319 301 -401 380
l-68 65 80 120 c216 323 378 770 405 1120 4 44 10 82 13 85 8 7 8 360 0 360
-3 0 -9 35 -12 78 -4 42 -9 87 -11 98 -2 12 -7 38 -10 57 -35 222 -123 483
-238 712 -301 595 -807 1027 -1454 1240 -70 23 -248 68 -309 79 -16 3 -43 8
-59 11 -15 3 -49 8 -75 11 -25 2 -75 7 -111 11 -177 19 -466 4 -655 -33 -282
-55 -509 -136 -738 -262 l-78 -43 -137 86 c-75 48 -238 151 -362 230 -294 188
-420 265 -428 265 -4 0 -45 -32 -92 -71z"/>
</g>
</svg>
